:SAMPLES-PER-SECOND 30
:FRAME-RANGE 1-564
:FULLY-SPECIFIED
:DEGREES
283
root  14.1936 39.4308 -10.9385 172.895 -5.6373 -173.811
RightUpLeg  -1.27599 2.18411 6.35965
RightLeg  -3.49147 -8.1661 -0.649608
RightFoot  6.22306 -0.879118 5.96162
RightToes  -1.74624e-010 0 -3.6325e-017
Spine  8.65477 -1.97122 4.48408
Spine1  1.46643 -1.76181 2.99041
HEad  -1.28242 12.3454 -6.75381
LeftShoulder1  3.49293 -5.60782 -32.3361
LeftArm  36.1541 -7.79156 -44.2434
LeftForeArm  -55.9442 -17.2226 -13.8872
LeftHand  3.19628 22.8477 20.8875
RightShoulder  2.00192 -0.996934 68.2698
RightArm  14.3533 -1.73739 -9.60986
RightForeArm  8.95066 -5.49175 17.7939
RightHand  0.684801 15.6239 3.29045
LeftUpLeg  27.5559 12.5325 19.2407
LeftLeg  13.6809 12.6424 3.75998
LeftFoot  -3.49951 1.41484 -20.1554
LeftToes  -6.43926e-010 8.38805e-011 -3.16407e-011
284
root  14.4935 39.4658 -12.1588 172.914 -4.16599 -173.678
RightUpLeg  -0.336158 2.04803 7.5621
RightLeg  -1.61903 -6.64775 -0.730166
RightFoot  4.57573 -0.509728 3.86817
RightToes  -1.74624e-010 0 -3.6325e-017
Spine  9.17246 -2.40225 4.89755
Spine1  1.03898 -1.96191 3.07767
HEad  -1.67831 13.3042 -6.16862
LeftShoulder1  3.49053 -5.68036 -32.007
LeftArm  31.6316 -8.58614 -43.4232
LeftForeArm  -64.187 -15.1385 -15.971
LeftHand  6.0996 30.569 26.809
RightShoulder  1.26621 -1.89978 68.0179
RightArm  15.4357 -2.63974 -10.1255
RightForeArm  11.433 -5.17065 17.8341
RightHand  0.864685 16.0201 4.18491
LeftUpLeg  23.2607 12.3798 19.8506
LeftLeg  23.6416 10.6785 5.40007
LeftFoot  3.46995 1.19242 -9.32209
LeftToes  -6.43926e-010 8.38805e-011 -3.16407e-011
285
root  14.7096 39.4402 -13.2503 172.805 -2.33974 -173.555
RightUpLeg  0.338833 1.13198 8.16358
RightLeg  0.982352 -3.94057 -0.340514
RightFoot  1.6085 -0.34475 3.13285
RightToes  -1.74624e-010 0 -3.6325e-017
Spine  9.74845 -2.59628 6.3838
Spine1  1.0607 -1.58798 2.19986
HEad  -2.52514 13.7536 -5.83353
LeftShoulder1  3.47454 -5.54398 -32.4031
LeftArm  27.8384 -9.9129 -42.311
LeftForeArm  -68.4296 -13.1622 -17.444
LeftHand  8.12724 34.9023 29.9682
RightShoulder  0.742926 -2.5486 67.9713
RightArm  15.7374 -3.00218 -10.2872
RightForeArm  11.318 -5.03534 17.9029
RightHand  1.09842 15.776 5.51185
LeftUpLeg  18.9689 12.6226 20.0101
LeftLeg  32.385 6.38632 4.69221
LeftFoot  8.36687 -0.0119153 -0.225168
LeftToes  -6.43926e-010 8.38805e-011 -3.16407e-011
286
root  14.9221 39.478 -14.3517 172.83 0.262436 -173.826
RightUpLeg  1.79945 1.07939 8.80838
RightLeg  1.97281 -1.3804 -0.659027
RightFoot  -0.64082 -0.296664 3.11934
RightToes  -1.74624e-010 0 -3.6325e-017
Spine  10.1085 -2.19899 7.42404
Spine1  0.956531 -0.735434 1.05115
HEad  -3.11237 14.0639 -5.4507
LeftShoulder1  3.44047 -5.48588 -32.2719
LeftArm  21.6693 -9.82248 -41.7991
LeftForeArm  -65.5561 -10.8364 -18.3771
LeftHand  8.06826 36.4595 28.2643
RightShoulder  0.719724 -2.5798 68.1212
RightArm  15.3893 -3.20699 -10.3252
RightForeArm  11.2075 -5.09437 17.881
RightHand  1.38096 16.4003 6.82462
LeftUpLeg  15.2269 13.4938 19.579
LeftLeg  39.1555 0.378978 0.701469
LeftFoot  3.00615 0.0762492 -0.750722
LeftToes  -6.43926e-010 8.38805e-011 -3.16407e-011
287
root  15.1192 39.545 -15.4308 172.798 2.83739 -174.442
RightUpLeg  3.6132 1.08125 9.06944
RightLeg  2.31624 1.10936 -1.24286
RightFoot  -2.40336 -0.245226 2.92655
RightToes  -1.74624e-010 0 -3.6325e-017
Spine  10.8234 -1.65593 7.7631
Spine1  0.301543 0.0776718 0.177535
HEad  -3.11137 14.5846 -5.10652
LeftShoulder1  3.3787 -5.36587 -32.0924
LeftArm  17.2994 -8.67526 -41.2644
LeftForeArm  -62.0273 -9.54875 -18.6046
LeftHand  7.07183 36.112 25.2487
RightShoulder  1.04546 -2.18208 68.3749
RightArm  16.2262 -3.1369 -10.1151
RightForeArm  9.53985 -4.92709 18.0376
RightHand  1.58874 16.7412 7.78633
LeftUpLeg  11.2907 13.9842 17.9213
LeftLeg  43.6763 -2.20162 -1.85849
LeftFoot  -1.61796 0.175986 -1.95488
LeftToes  -6.43926e-010 8.38805e-011 -3.16407e-011
288
root  15.294 39.6638 -16.5231 172.709 5.76915 -175.459
RightUpLeg  5.50979 1.04467 8.79586
RightLeg  2.50516 3.94193 -1.91577
RightFoot  -3.73244 -0.195993 2.56409
RightToes  -1.74624e-010 0 -3.6325e-017
Spine  11.3531 -0.781509 7.80562
Spine1  -0.240481 1.08976 -0.907668
HEad  -2.82735 15.2689 -5.21053
LeftShoulder1  3.34283 -5.23111 -32.2688
LeftArm  16.7049 -7.04845 -40.3254
LeftForeArm  -60.5704 -9.8523 -18.3394
LeftHand  6.11153 35.2057 22.6737
RightShoulder  1.70459 -1.3758 68.5651
RightArm  18.2455 -3.04516 -9.59812
RightForeArm  6.68504 -4.69793 18.2714
RightHand  1.76397 16.9246 8.61673
LeftUpLeg  7.63415 14.741 15.4465
LeftLeg  45.2254 -1.14476 -0.831925
LeftFoot  -3.61646 0.137089 -1.70845
LeftToes  -6.43926e-010 8.38805e-011 -3.16407e-011
289
root  15.377 39.7839 -17.5456 172.441 7.3159 -176.504
RightUpLeg  7.63188 0.262791 7.65279
RightLeg  2.11775 6.34498 -2.0002
RightFoot  -4.9988 -0.143504 1.97583
RightToes  -1.74624e-010 0 -3.6325e-017
Spine  12.1492 -0.476951 7.8938
Spine1  -0.817109 1.49451 -2.19014
HEad  -2.79903 15.8791 -5.58589
LeftShoulder1  3.31079 -5.02827 -32.8014
LeftArm  16.4238 -5.69468 -39.2642
LeftForeArm  -57.8922 -9.7067 -18.2884
LeftHand  5.07062 33.9559 19.8434
RightShoulder  2.61777 -0.26106 68.7283
RightArm  18.2436 -2.26582 -8.63425
RightForeArm  6.34427 -4.95288 18.1783
RightHand  1.82088 17.0773 8.84357
LeftUpLeg  3.40026 13.7525 12.2462
LeftLeg  45.0523 1.53407 2.05155
LeftFoot  -6.05591 0.057745 -0.461899
LeftToes  -6.43926e-010 8.38805e-011 -3.16407e-011
